<?xml version="1.0" encoding="UTF-8"?>
<svg xmlns="http://www.w3.org/2000/svg" version="1.1" viewBox="0 0 30 31">
  <defs>
    <style>
      .cls-1 {
        fill: #3d8500;
      }
    </style>
  </defs>
  <!-- Generator: Adobe Illustrator 28.7.1, SVG Export Plug-In . SVG Version: 1.2.0 Build 142)  -->
  <g>
    <g id="Layer_1">
      <path class="cls-1" d="M15,3.3c-6.7,0-12.2,5.5-12.2,12.2,0,6.7,5.5,12.2,12.2,12.2,6.7,0,12.2-5.5,12.2-12.2,0-6.7-5.5-12.2-12.2-12.2h0ZM19.7,16.4h-3.8v3.8c0,.5-.4.9-.9.9s-.9-.4-.9-.9v-3.8h-3.8c-.5,0-.9-.5-.9-1,0-.5.4-.9.9-.9h3.8v-3.8c0-.5.4-.9.9-.9s.9.4.9.9v3.8h3.8c.5,0,.9.4.9.9,0,.5-.4.9-.9.9h0Z"/>
    </g>
  </g>
</svg>